<svg width="256" height="256" viewBox="0 0 256 256" fill="none" xmlns="http://www.w3.org/2000/svg">
<g clip-path="url(#clip0_10522_1587)">
<rect width="256" height="256" rx="128" fill="white"/>
<path d="M119.617 0.0688334C119.067 0.118833 117.315 0.293833 115.738 0.418833C79.378 3.69683 45.319 23.3128 23.748 53.4628C11.736 70.2268 4.054 89.2428 1.151 109.385C0.125 116.415 0 118.492 0 128.025C0 137.558 0.125 139.635 1.151 146.665C8.108 194.73 42.316 235.114 88.711 250.076C97.02 252.754 105.778 254.58 115.738 255.681C119.617 256.106 136.383 256.106 140.262 255.681C157.454 253.779 172.018 249.526 186.382 242.195C188.584 241.069 189.01 240.769 188.709 240.518C188.509 240.368 179.125 227.783 167.864 212.57L147.394 184.922L121.744 146.966C107.63 126.098 96.019 109.034 95.919 109.034C95.819 109.009 95.719 125.874 95.669 146.465C95.593 182.52 95.569 183.971 95.118 184.822C94.468 186.048 93.967 186.549 92.916 187.099C92.115 187.499 91.414 187.574 87.636 187.574H83.306L82.156 186.849C81.4428 186.402 80.8635 185.771 80.479 185.022L79.953 183.896L80.003 133.73L80.078 83.5378L80.854 82.5618C81.254 82.0368 82.105 81.3618 82.706 81.0358C83.732 80.5358 84.132 80.4858 88.461 80.4858C93.566 80.4858 94.417 80.6858 95.743 82.1368C96.119 82.5368 110.007 103.455 126.623 128.651C143.24 153.846 165.963 188.25 177.123 205.139L197.393 235.839L198.419 235.164C207.503 229.259 217.112 220.852 224.719 212.094C240.91 193.504 251.345 170.836 254.849 146.666C255.875 139.635 256 137.558 256 128.026C256 118.492 255.875 116.416 254.849 109.385C247.892 61.3198 213.684 20.9358 167.289 5.97383C159.105 3.32183 150.397 1.49483 140.637 0.393833C138.235 0.143833 121.694 -0.131167 119.617 0.0688334ZM172.018 77.4828C173.219 78.0828 174.195 79.2348 174.545 80.4358C174.745 81.0858 174.795 94.9978 174.745 126.349L174.671 171.336L166.738 159.176L158.78 147.016V114.314C158.78 93.1708 158.88 81.2858 159.03 80.7108C159.43 79.3098 160.307 78.2088 161.508 77.5578C162.534 77.0328 162.909 76.9828 166.838 76.9828C170.542 76.9828 171.192 77.0328 172.018 77.4828Z" fill="black"/>
</g>
<defs>
<clipPath id="clip0_10522_1587">
<rect width="256" height="256" rx="128" fill="white"/>
</clipPath>
</defs>
</svg>
